<?xml version="1.0" encoding="utf-8"?>
<!-- Generator: Adobe Illustrator 21.0.0, SVG Export Plug-In . SVG Version: 6.00 Build 0)  -->
<svg version="1.1" xmlns="http://www.w3.org/2000/svg" xmlns:xlink="http://www.w3.org/1999/xlink" x="0px" y="0px"
	 viewBox="0 0 288 290.2" style="enable-background:new 0 0 288 290.2;" xml:space="preserve">
<style type="text/css">
	.st0{fill:none;stroke:#676165;stroke-width:2;stroke-miterlimit:10;}
	.st1{display:none;fill:none;stroke:#676165;stroke-width:2;stroke-miterlimit:10;}
	.st2{fill:#676165;}
	.st3{fill:none;stroke:#676165;stroke-miterlimit:10;}
	.st4{fill:#676165;stroke:#676165;stroke-miterlimit:10;}
</style>
<g id="Calque_1">
	
		<image style="display:none;overflow:visible;" width="564" height="564" xlink:href="eb129713cdec693899f92aa8439fb2c5.jpg"  transform="matrix(0.6105 0 0 0.6163 292.2493 -40.0921)">
	</image>
	<polyline id="L" class="st0" points="90,85.9 90,182.5 121.9,182.4 	"/>
	<polyline id="H" class="st0" points="122,119.1 122,179.5 122,233.2 	"/>
	<polyline id="H_1_" class="st0" points="176.6,119.1 176.6,179.5 176.6,233.2 	"/>
	<line id="H_2_" class="st1" x1="122" y1="179.5" x2="182.6" y2="179.5"/>
	<g>
		<path class="st2" d="M137.2,182.6c-1.7,0.2-3.4,0.3-5.1,0.4l-5.1,0.3c-1.7,0.1-3.4,0.3-5.1,0.2c-1.7-0.1-3.4-0.3-5.1-0.9v-0.2
			c1.7-0.6,3.4-0.8,5.1-0.9c1.7-0.1,3.4,0.1,5.1,0.2l5.1,0.3c1.7,0.1,3.4,0.2,5.1,0.4V182.6z"/>
	</g>
</g>
<g id="Calque_2">
	<path class="st3" d="M187.3,151.7c-13.9,43.4-64.8,29.6-64.8,29.6"/>
	<path class="st4" d="M156.3,188c-5.4,0.9-5.2-2.1-5.2-2.1C155.2,185.5,156.3,188,156.3,188z"/>
	<path class="st3" d="M141.4,183.4c2.6,0.2,9.6,2.5,9.6,2.5"/>
	<path class="st4" d="M132,177.8c-1.9-5,3.6-6.6,3.6-6.6S136.1,178,132,177.8z"/>
	<path class="st3" d="M132,177.8c0,0-2.1,4.1-5.3,4.6c0,0,0,0,0,0"/>
	<path class="st4" d="M139.2,190.9c0,0-3.8-2.1-2.2-3.6C139.9,185.8,139.2,190.9,139.2,190.9z"/>
	<path class="st3" d="M133.1,183.2c3.1,1.9,3.9,4,3.9,4"/>
	<path class="st4" d="M144.4,175c-2.4-1.6,4.4-5.1,4.4-5.1S148.7,175,144.4,175z"/>
	<path class="st3" d="M144.4,175c0,0-2.8,5.9-8.8,7.8c0,0,0,0,0,0"/>
	<path class="st4" d="M158,176.4c-1.7-3.6,1.8-5.9,1.8-5.9S162.2,174.7,158,176.4z"/>
	<path class="st3" d="M152.1,182.4c4.7-1.5,5.9-6,5.9-6"/>
	<path class="st4" d="M171.2,185.1c0,0-4.3,0-5.1-3.6C169.4,179.5,171.2,185.1,171.2,185.1z"/>
	<path class="st3" d="M160.8,180.1c2.4-0.8,5.3,1.4,5.3,1.4"/>
	<path class="st4" d="M172.5,164.3c-4.6-0.4-2.4-5.9-2.4-5.9S174,162.1,172.5,164.3z"/>
	<path class="st3" d="M172.5,164.3c0,0,1.9,6-0.6,9.8"/>
	<path class="st4" d="M182.4,153.8c-3.3-1.1-2.3-3.9-2.3-3.9S183.7,151.6,182.4,153.8z"/>
	<path class="st4" d="M187.1,152c-1-2.8,1.3-3.5,1.3-3.5S189.2,151.8,187.1,152z"/>
	<path class="st3" d="M182.4,153.8c0,0,2.6,4.3,0.9,7.4"/>
	<path class="st4" d="M194.2,164.2c0,0-3.2,3.8-6.6,1.6C188,162.2,194.2,164.2,194.2,164.2z"/>
	<path class="st3" d="M187.6,165.9c0,0-8.1,1.2-10.1,3.2c0,0,0,0,0,0"/>
	<path class="st4" d="M185.5,176.4c0,0-3.9,0.1-6.4-1.9C181.3,170.8,185.5,176.4,185.5,176.4z"/>
	<path class="st3" d="M169.1,176.2c6.7-3.6,10-1.7,10-1.7"/>
	<path class="st4" d="M196.4,150.7c0,0-2.2,3.4-5.8,2.3C190.5,150.3,196.4,150.7,196.4,150.7z"/>
	<path class="st3" d="M185.8,155.7c0.9-2,4.8-2.7,4.8-2.7"/>
</g>
</svg>
