<?xml version="1.0" encoding="utf-8"?>
<!-- Generator: Adobe Illustrator 21.0.0, SVG Export Plug-In . SVG Version: 6.00 Build 0)  -->
<svg version="1.1" id="Calque_1" xmlns="http://www.w3.org/2000/svg" xmlns:xlink="http://www.w3.org/1999/xlink" x="0px" y="0px"
	 viewBox="0 0 560 315" style="enable-background:new 0 0 560 315;" xml:space="preserve">
<style type="text/css">
	.st0{opacity:0.84;fill:#F2C9E0;enable-background:new    ;}
	.st1{fill:none;stroke:#FFFFFF;stroke-width:1.5;stroke-miterlimit:10;}
	.st2{fill:none;stroke:#FFFFFF;stroke-linecap:round;stroke-miterlimit:10;}
	.st3{fill:none;stroke:#FFFFFF;stroke-miterlimit:10;}
	.st4{fill:#FFFFFF;stroke:#FFFFFF;stroke-miterlimit:10;}
	.st5{fill:none;stroke:#FFFFFF;stroke-width:0.5;stroke-miterlimit:10;}
	.st6{fill:none;stroke:#FFFFFF;stroke-width:0.5;stroke-linecap:round;stroke-miterlimit:10;}
	.st7{fill:none;stroke:url(#SVGID_1_);stroke-width:0.5;stroke-linecap:round;stroke-miterlimit:10;}
	.st8{display:none;}
	.st9{display:inline;}
</style>
<g id="fond">
	<rect x="-5.3" y="-4.2" class="st0" width="569.4" height="324.8"/>
</g>
<g id="cadre">
	<rect x="98.2" y="47" class="st1" width="364" height="209.3"/>
</g>
<g>
	<g id="tige">
		<path class="st2" d="M270.1,246.8c0.1,6.2-0.1,9.6-0.1,9.6"/>
		<path class="st3" d="M254.2,186c10.9,10,14.4,35.6,15.5,52.6"/>
	</g>
	<path id="feuille" class="st3" d="M270.1,246.8c-5.5-2.5-7.8-6.6-8.8-8.8c-0.4-1-0.7-2.1-0.7-3.1c-0.4-6.4-2.9-11.1-2.9-11.1
		c0.1,0.1,9.8,5.8,12,14.8l0.4,8C270.1,246.8,270.1,246.5,270.1,246.8z"/>
	<g>
		<path class="st3" d="M251,162.2c-0.3-0.5-0.5-0.8-0.5-0.8c-0.4-0.8-1-1.6-1.3-2c-0.3-0.6-0.7-1.2-1.3-1.5
			c-0.8-0.4-1.7-0.4-2.4-0.3c-0.2,0-0.3-0.1-0.5-0.1c-0.4-0.1-0.9-0.1-1.3-0.1c-0.2,0-0.4,0-0.6,0c-0.8,0-1.6,0.2-2.2,0.4
			c-0.4,0.1-0.8,0.3-1.1,0.4l0,0c-0.5,0.2-0.7,0.4-0.7,0.4c-3.1-0.7-5-0.1-5-0.1"/>
		<path class="st3" d="M261.3,159.7c0,0-0.7,0.5-2,1.1c-0.5,0.1-1.1,0.1-1.7-0.1c0,0-1.3-0.5-2.9-0.2c0,0-3.6-0.7-3.7,1.7"/>
		<path class="st3" d="M234.1,158.7c0,0,0-3.7,4.5-4.8c0,0,3-2.8,6.3-0.6c0,0,2.9-0.9,6.6-0.1c0.3,0.1,0.6,0.1,1,0.1
			c1.1,0.1,4,0.5,5.1,2.8c0,0,3.9,0.2,3.7,3.7"/>
	</g>
	<path class="st3" d="M245.3,157.9c-0.1-0.3,0-0.2,0.2-0.2"/>
	<path class="st3" d="M245.5,157.7c-0.8,0.2-1.4,0.5-1.4,0.5c-0.7,1.1-2.1,2.1-3.2,2.8c-0.3,0.2-0.6,0.3-0.8,0.5
		c-0.3,0.2-0.7,0.2-1,0.2c-1.2-0.2-2.4-0.1-3.2,0c-0.5,0.1-1.1,0.3-1.4,0.7c-3.1,3.3-3.6,7.2-3.7,8.2c0,0.2-0.1,0.4-0.2,0.6
		c-0.6,1.1-1.1,2-1.4,2.7c-0.3,0.6-0.8,1.1-1.4,1.4c-3.7,2.1-2.8,6.3-1.9,8.6c0.2,0.4,0.2,0.9,0,1.3c-1.1,3.6-5.9,5.8-6.2,5.9
		c-0.6,0.3-1.5,0.5-1.9,0.9l-0.3,0.2c0,0-4.4-3.2-0.3-9.6c0.3-0.4,0.3-1,0.1-1.5c-0.6-1.6-1.2-5.5,3.5-10.9c0.4-0.5,0.7-1.1,1-1.6
		c0.3-0.7,0.9-1.7,2.1-2.8c0.7-0.6,1.1-1.4,1.5-2.2c0.4-0.9,1.1-2.1,2.8-3.2c0.3-0.2,0.5-0.4,0.7-0.6c0.5-0.7,2.1-2.3,5.4-0.9
		c0,0,2.2-0.7,5,0.1c0,0,0.2-0.2,0.7-0.4l0,0c0.3-0.1,0.7-0.3,1.1-0.4c0.6-0.2,1.3-0.4,2.2-0.4c0.6,0,1.2,0,1.9,0.1"/>
	<path class="st3" d="M251,162.2c0.1-2.4,3.7-1.5,3.7-1.5c1.6-0.4,2.9,0.2,2.9,0.2c0.7,0.2,1.3,0.2,1.7,0.1c1.3-0.2,2-1.1,2-1.1l0,0
		c0.7-1,1.7-0.9,2.5-0.7c0.5,0.1,0.9,0.5,1.1,1c2.1,6.8-2.1,9.3-2.1,9.3c-2.7,1.7-3.6,4.8-3.6,4.8c-1,6.2-4.9,11.6-5,11.7"/>
	<path class="st3" d="M252.5,187.3c-4.1,3.6-15.4,12.4-29.6,10.5c-0.5-0.1-1-0.1-1.6-0.2c-1,0-3.1-0.3-4.2-1.9
		c-0.3-0.4-0.4-0.8-0.4-1.2c0-0.6,0.1-1.5,0.9-2.3l0.2-0.2c0.4-0.4,1.2-0.8,1.8-1.1c0.4-0.2,5.7-2.7,6.4-6.7
		c0.2,0.5,0.4,0.8,0.4,0.9l0,0l0,0l0,0l0,0l0,0h0.1c0.1,0,0.2,0.1,0.4,0.2c2.8,1.3,5.4,2.3,7.7,2.9l0,0c1.3,0.4,2.6,0.7,3.6,0.9
		c0,0,0,0,0.1,0c0.4,0.1,2.3,0.5,4.6,0.5h0.1c0.3,0,0.7,0,1.1,0c0.2,0,0.4,0,0.5,0c0.8,0,1.5-0.1,2.2-0.2
		C249.6,189.3,251.4,188.1,252.5,187.3z"/>
	<path class="st3" d="M251,162.2c0.9,1.6,2.9,5.1,3.9,9l0,0l0,0c0.3,1.1,0.5,2.4,0.7,3.6l0,0c0.3,2.4,0.4,5.6-0.5,9
		c-4.6,0.9-3.6,4.2-3.6,4.2c0.3-0.1-0.3,0.1,0,0"/>
	<path class="st3" d="M251.5,188c-1.6,1.1-2.7,1.4-4.5,1.7c-0.7,0.1-1.5,0.2-2.2,0.2c-0.2,0-0.4,0-0.5,0c-0.4,0-0.7,0-1.1,0h-0.1
		c-1.4,0-2.9-0.2-4.6-0.5h-0.1c-1.1-0.2-2.3-0.5-3.6-0.9l0,0c-3-1-6.4-2.4-7.7-2.9c-0.2-0.1-0.3-0.1-0.4-0.2l-0.2-0.3l0.1,0.3l0,0
		l0,0l0,0l0,0l-0.4-0.9c-0.9-2.1-2.4-7.1,2-9.3c0.4-0.2,0.7-0.5,0.9-1c0.3-0.5,0.7-1.4,1.3-2.4c0.3-0.5,0.5-1.1,0.5-1.7
		c0.2-1.5,1-4.9,3.8-7.8c0.3-0.3,0.7-0.5,1.2-0.6c0.8-0.1,2.1-0.2,3.4,0c0.4,0.1,0.8,0,1.1-0.2c0.2-0.1,0.4-0.2,0.7-0.4
		c1-0.6,2.2-1.5,2.9-2.4c0.3-0.3,0.6-0.6,1-0.7c0.2-0.1,0.4-0.1,0.7-0.2c1-0.2,2.6-0.1,3.6,1.2c0,0.1,1.2,1.8,1.4,2.5"/>
	<path id="pistille" class="st4" d="M254.9,183.4c0,0.1-0.1,0.2-0.1,0.3l0,0c-0.1,0.4-0.4,1.3-0.7,2l0,0l0,0l0,0
		c-0.1,0.1-0.6,0.9-1.9,1.8l0,0l0,0c0.1-0.1,0.2-0.2,0.3-0.3c0.6-0.4,1.1-0.9,1.6-1.5c-0.1,0.1-0.7,0.7-1.6,1.5
		c-0.2,0.1-0.3,0.2-0.5,0.4c-0.3,0.1-0.6,0.3-0.9,0.3C251,188,250.3,183.4,254.9,183.4z"/>
	<path class="st3" d="M268.5,225.9c0,0,15.8-74.1,29.5-101.4"/>
	<path id="feuille_1_" class="st3" d="M278.9,182.6c0,0,3.9-10.1,16.1-11.1c0,0,9.7-1,13.8-5c0,0-5.2,16.4-11.3,20.9
		c0,0-8.1,7.3-22.2,9.6L278.9,182.6z"/>
	<path class="st3" d="M302.9,110.9c0,0-0.3,1.8-1.1,4.3c-0.8,2.5-2,5.9-3.8,9.3l0,0c-3.1,5.8-6.1,14.4-13.4,15.8
		c-0.9,0.2-1.9,0.2-2.8-0.1c-2.9-0.7-9.1-3.4-10.2-12.7c0-0.3-0.2-0.5-0.4-0.6c-2-0.7-11.4-5.7-9.8-12.3c0,0,1.2-4.7,9.3-4.1
		c9.7,1.2,16,1.5,20.5,1.2c0.2,0,0.8-0.1,1-0.1c0.1,0,0.6-0.1,0.8-0.1c2.7-0.2,5.1-0.7,6.7-1.6c0.1,0,0.2-0.1,0.2-0.1l0,0
		c0.2-0.1,0.3-0.2,0.4-0.3c0.2-0.1,0.3-0.2,0.3-0.2l0,0l0,0c0,0,0.1,0.1,0.2,0.2l0.1,0.1c0.2,0.2,0.4,0.3,0.6,0.5
		c0.1,0.1,0.2,0.2,0.2,0.2l0,0l0.2,0.1C302.4,110.7,302.6,110.8,302.9,110.9L302.9,110.9L302.9,110.9z"/>
	<path class="st3" d="M300.8,109.5L300.8,109.5C300.7,109.5,300.7,109.5,300.8,109.5c-0.2,0.1-0.3,0.2-0.4,0.3
		c-0.1,0.1-0.4,0.3-0.4,0.3c-0.1,0-0.1,0.1-0.2,0.1c-1.1,0.5-3.1,1.2-6.7,1.6l-0.8,0.1c-0.1,0-0.8,0.1-1,0.1c-8.1,0.4-17.9-1-17.9-1
		c-1-0.2-2.1-0.4-2.9-0.5c0,0-13.9-4.3-7-13c0,0,2-2.5,4.8-4.2c1-0.6,2.2-1,3.3-1.3c1.4-0.3,4.8-1.4,8.3-4.4
		c0.1-0.1,0.1-0.1,0.2-0.2c0.4-0.4,0.9-0.7,1.4-0.9c1.7-0.7,5.4-1.4,8.1,2.9c0.5,0.8,1,1.6,1.6,2.3c1.9,2.3,6,7.3,8.2,11.3
		c0.3,0.5,0.5,0.9,0.7,1.3c0.4,0.8,0.6,1.5,0.8,2.1l0,0C299.9,106.9,300.1,109.2,300.8,109.5z"/>
	<path class="st3" d="M306.9,76.6L306.9,76.6c-2.8,3.3-4.7,9.9-5.9,15.6c-1.2,5.8-1,12-1,12.1c-2.5-4.5-8-11.6-9.5-13.3
		c-0.3-0.4-0.6-0.8-0.8-1.2c-3.6-6.3-9.3-2.9-9.3-2.9c-0.2,0.2-0.5,0.4-0.7,0.6c0,0-4.2-4,1.4-7.2c0.4-0.2,0.8-0.6,1.1-1
		c1-1.3,3.9-4.1,8.7-2.9c0.6,0.2,1.2,0.3,1.8,0.2c1.1,0,2.9-0.3,5.1-1.3c1.1-0.5,2.3-0.8,3.5-0.7C302.8,74.7,304.9,75.1,306.9,76.6z
		"/>
	<path class="st3" d="M328.7,91.4c0,0-0.1,0.3-0.4,0.8c-1.4,2.5-6.5,10.2-17.6,17.4c-0.6,0.4-1.2,0.8-1.8,1.1h-0.1
		c-0.1-0.7-0.3-1.2-0.5-1.7c0-0.1-0.2-0.5-0.2-0.5c-0.7-1.4-1.8-2-2.5-2.3c-0.1,0-0.2-0.1-0.3-0.1c-0.2-0.1-0.3-0.1-0.3-0.1
		c-1.7-0.4-3.3,0.2-4.1,0.6c-0.2,0.1-0.4,0.3-0.5,0.5c-0.2,0.4-0.2,0.9-0.1,1.4c0.1,0.4,0.3,0.7,0.5,0.9c-0.7-0.3-0.8-2.5,0-3l0,0
		c-0.1-0.6,0.1-0.1-0.3-0.9c-0.2-0.4-0.3-0.8-0.5-1.3c0,0-0.2-6.4,1-12.1c1.2-5.8,3.1-12.3,5.9-15.5c0.8-0.9,1.6-1.5,2.5-1.8
		c0.6-0.2,1.3-0.2,2,0c1,0.3,2.7,1.1,4.2,3c2.4,3,6.4,4.2,10.2,3.1c0.1,0,0.1,0,0.2-0.1c0.9-0.3,1.9-0.2,2.8,0.3
		C330.5,82.3,332.7,85,328.7,91.4z"/>
	<path class="st3" d="M325.5,124.1L325.5,124.1c-0.5-0.5-1-1-1.5-1.6c-0.2-0.2-0.4-0.5-0.6-0.8c-1-1.6-5.7-8.1-14.5-9.8
		c0-0.4,0-0.8-0.1-1.1h0.1c0.6-0.4,1.2-0.7,1.8-1.1c11.1-7.2,16.2-14.9,17.6-17.4c0,0,3.1-3.1,7-3.1c1.8,0,3.8,0.7,5.7,2.6
		c0.8,0.8,1.3,1.8,1.6,2.9c0.7,3,1.9,9.9-1,14c-0.5,0.7-0.5,1.6-0.2,2.4c1.3,2.6,3.1,8.8-2.7,15.5c-1.4,1.6-3.5,2.4-5.6,1.9
		C331.2,128.2,328.6,127,325.5,124.1L325.5,124.1"/>
	<path class="st3" d="M325.6,124.1c0.7,0.8,9.8,12.6,7.2,15.1c0,0-1.6,2.2-8,1.9c-1.5-0.1-2.9,0.8-3.5,2.2c-0.8,1.7-2.5,3.3-5.1,3.8
		c0,0-3.5,0.9-9.5-2c-1.5-0.7-3.2-0.7-4.6,0.2c-1.5,1-3.5,1.9-5,1.2c0,0-4.4-0.2-1.6-9.5c0.1-0.5,0.3-1,0.4-1.4
		c0.4-1.7,1.3-6,1.9-9.3c0.2-1.1,0.5-2.1,1-3.1c1.4-2.9,2.4-5.7,3.1-7.9c0.8-2.5,1.1-4.3,1.1-4.3c0.2,0.1,0.3,0.1,0.5,0.2
		c0.1,0.1,0.3,0.1,0.4,0.2c2.6,0.9,4.7,0.5,4.7,0.5c9,1.8,14,8.6,14.9,10c0.1,0.2,0.3,0.4,0.4,0.5
		C324.4,122.9,325,123.5,325.6,124.1"/>
	<path class="st4" d="M309.3,111.7c0,0-1.6,0.9-5.5-0.4c-0.1,0-0.3-0.1-0.4-0.2c-0.2-0.1-0.3-0.1-0.5-0.2l0,0l0,0
		c-0.2-0.1-0.5-0.2-0.7-0.4c-0.1,0-0.1-0.1-0.2-0.1l0,0c-0.1-0.1-0.2-0.1-0.2-0.2c-0.2-0.2-0.4-0.3-0.6-0.5l-0.1-0.1
		c-0.1-0.1-0.2-0.2-0.2-0.2c-0.2-0.2-0.4-0.6-0.5-0.9l0,0c-0.2-0.9,0.3-1.8,1.2-2.2c0.9-0.3,2.1-0.6,3.5-0.3c0,0,0.1,0,0.3,0.1
		c0.1,0,0.2,0.1,0.3,0.1c0.6,0.3,5.3,1.6,4.3,4.4C309.7,111,309.6,111.3,309.3,111.7z"/>
	<path class="st5" d="M275.1,136.2c0,0,10.6,4.2,17.6-2"/>
	<path class="st5" d="M330.9,127.9c0,0,10.6-2.1,11.5-13.6"/>
	<path class="st5" d="M330.5,131.1c0,0,4.1,9.3-4.4,10"/>
	<path class="st6" d="M275.7,195.6c0,0,1.9-7.6,11.9-11.8c6.7-2.8,7.3-4.9,7.3-4.9"/>
	<path class="st6" d="M264.2,235.9c0,0,3.9,4.3,5.3,10.1"/>
	<g>
		<path class="st6" d="M254.4,185.7c3.7-6.4,2.4-15.8,2.4-15.8"/>
		<path class="st6" d="M247.7,168.4"/>
		
			<linearGradient id="SVGID_1_" gradientUnits="userSpaceOnUse" x1="245.1315" y1="-617.7643" x2="251.3991" y2="-617.7643" gradientTransform="matrix(1 -3.601045e-05 -3.601045e-05 -1 2.3048 -441.4054)">
			<stop  offset="0" style="stop-color:#FFFFFF"/>
			<stop  offset="1" style="stop-color:#FFFFFF"/>
		</linearGradient>
		<path class="st7" d="M247.7,168.4c0,0,6.2,6.5,5.7,15.9"/>
		<path class="st6" d="M234.1,183.4c0,0,6.2,5.1,17.4,3.3"/>
		<path class="st6" d="M246.4,174.4c0,0,4.5,4.5,5.7,9.9"/>
		<path class="st6" d="M239.9,181.3c0,0,4.3,4.4,11.5,4.1"/>
		<path class="st6" d="M236.4,193.1c0,0,8.4,0.3,15.6-5.4"/>
	</g>
	<g>
		<path class="st6" d="M304.4,111.9c0,0,0.4,5.3-1.6,11.6"/>
		<path class="st6" d="M305.5,111.5c0,0,0.7,6.3,2.1,8.4"/>
		<path class="st6" d="M307,111.5c0,0,1.4,4.9,7.5,7.7"/>
		<path class="st6" d="M309.4,111.5c0,0,8.1,1.2,11.4,3.6"/>
		<path class="st6" d="M309.8,110.9c0,0,6.1,0.5,8.9,0"/>
		<path class="st6" d="M310,110.5c0,0,7.7-1.6,10.3-4.6"/>
		<path class="st6" d="M296,119.7c0,0,5.1-5.2,5.8-9.3"/>
		<path class="st6" d="M291.9,115.5c0,0,6.5-1,9.3-5.6"/>
		<path class="st6" d="M283.9,107.8c0,0,8.4,2.1,16.5,0.9"/>
		<path class="st6" d="M291,99.4c0,0,5.5,1.9,9.3,8.3"/>
		<path class="st6" d="M292.7,105.3c0,0,2.7,1.9,7.3,2.7"/>
		<path class="st6" d="M305.1,94.3c0,0-3.3,6-1.5,12.1"/>
		<path class="st6" d="M316.6,98.4c0,0-3.2,7.6-10.1,9.6"/>
		<path class="st6" d="M306.2,99c0,0-1.5,3.6-1.2,7.1"/>
		<path class="st6" d="M310,101.7c0,0-1.2,3.1-3.8,5"/>
	</g>
</g>
<g id="logo" class="st8">
	<g id="écriture" class="st9">
		<g id="by_laulau">
			<path d="M231.7,187.9c0.3-1.1,0.8-2.6,1.5-4.5c0.6-1.5,1.2-3,1.9-4.4c1.2-2.3,2.4-3.4,3.7-3.4c0.3,0,0.5,0,0.7,0.1l0.6,0.3
				c0.5,0.3,0.8,0.9,0.8,1.5c0,0.7-0.1,1.4-0.4,2c-0.5,1.2-1.5,2.7-3.1,4.5c-1.4,1.7-3,3.2-4.7,4.6c-0.4,1-0.7,2.1-0.8,3.2
				c0.7-1.3,1.7-2.5,2.7-3.6c1.1-1.2,2.2-1.8,3.2-1.8c0.3,0,0.7,0.2,1.2,0.7c0.4,0.4,0.7,0.8,0.8,1.3c0,0.1,0,0.3,0,0.4
				c0,1-0.4,2.1-1.3,3.3c-0.8,1.1-1.7,2.1-2.8,3c-1.6,1.3-3.2,2-4.7,2c-0.7,0-1.5-0.4-1.5-0.7c0-0.4,0.1,0,1.2,0
				c1.1,0,2.6-0.7,4.4-2.3c1.8-1.5,2.8-3.3,3.2-5.4c0-0.3,0-0.7,0-1s-0.2-0.5-0.5-0.5c-0.8,0-2,0.7-3.3,2.1
				c-0.7,0.7-1.3,1.5-1.8,2.4c-0.6,1-0.9,1.8-0.9,2.5c0,0.1,0,0.2,0,0.3c0.1,0.3,0,0.4-0.1,0.5c-0.3,0.5-0.9,0.3-1-0.1
				c-0.1-0.4-0.1-0.7-0.1-1.1c0-1.1,0.1-2.2,0.4-3.3c-0.2,0.3-0.4,0.6-0.5,0.8L231.7,187.9z M236.9,183.3c2.2-2.7,3.3-4.7,3.3-6.1
				c0-0.6-0.1-0.8-0.5-0.8c-0.3,0-0.6,0.2-1.1,0.6c-1.9,1.8-3.8,5.2-5.6,10.1C234.4,186,235.7,184.7,236.9,183.3z"/>
			<path d="M247.4,197.3c-1.6,4-2.7,6.5-3.2,7.5c-1.4,2.5-2.8,3.8-4.1,3.8c-0.2,0-0.4,0-0.6-0.1c-1-0.3-1.4-0.9-1.4-1.8
				s0.5-2.1,1.5-3.5s3.1-3.4,6.2-5.9c1.8-4.4,2.9-7.4,3.3-9.2c-0.2,0.3-0.7,1-1.3,2.1c-0.7,1.1-1.3,2-1.7,2.7
				c-0.6,0.8-1.1,1.5-1.8,2.1c-0.7,0.7-1.4,1-2,1c-0.5,0-1-0.1-1.4-0.5c-0.3-0.3-0.5-0.7-0.6-1c0-0.3,0-0.6,0-0.9
				c0-0.8,0.2-1.7,0.6-2.5c0.5-1.3,1.3-2.5,2.3-3.6c0.4-0.4,0.7-0.6,1-0.6s0.6,0.1,0.7,0.3c0.3,0.3,0.3,0.6,0.2,0.8
				c-0.7,0.5-1.5,1.5-2.4,2.9c-0.6,0.9-0.8,1.9-1,2.9c0,0.2,0,0.4,0,0.6c0,0.2,0.1,0.4,0.3,0.6c0.1,0.1,0.3,0.2,0.5,0.2
				c0.6,0,1.2-0.4,1.8-1.1c0.7-0.7,1.3-1.5,1.8-2.4s1.3-1.8,2-3s1.2-2,1.5-2.3c0.2-0.4,0.5-0.6,0.7-0.6c0.3,0,0.7,0.1,0.9,0.3
				c0.3,0.2,0.4,0.4,0.4,0.5s-0.5,1.4-1.4,3.9s-1.6,4.2-2,5.3L247.4,197.3z M245.3,198.6c-2.3,2-3.8,3.7-4.8,4.8s-1.4,2.2-1.4,3.1
				s0.3,1.3,0.7,1.3s0.8-0.2,1.3-0.7c0.6-0.6,1-1.2,1.4-1.9s0.7-1.3,1-2c0.2-0.6,0.6-1.4,1-2.5C244.9,199.7,245.1,199,245.3,198.6
				L245.3,198.6z"/>
			<path d="M260.2,194.4c0.2,0.1,0.9,0.6,1,0.7l1.7,1.1c0.4-1.3,0.8-2.4,1-3.1c-0.1,0.1-0.4,0.1-0.5,0.1c-0.2,0-0.3,0.1-0.3-0.1
				c0-0.1,0-0.4,0.2-0.5l0.7-0.1c0.3-1.1,0.7-2.3,1-3.8c0.4-1.5,0.6-2.3,0.6-2.3c1.1-4.4,2.1-7.2,2.9-8.3s1.6-1.9,2.3-2.2
				c0.7-0.4,1.2-0.5,1.6-0.5c1,0,1.8,0.5,2.4,1.4c0.4,0.8,0.6,1.6,0.6,2.5c0,1.9-0.6,3.8-1.6,5.6s-2.3,3.4-3.8,4.7
				c-1.4,1.2-3,2.2-4.6,3c-0.4,1.4-1,2.7-1.6,4c2.9,2.2,4.9,3.6,6.1,4.1c1.3,0.6,2.6,0.8,3.9,0.8s2.5-0.4,3.4-1.4
				c0.5-0.4,0.7-0.9,0.7-1.4c0-0.4-0.1-0.9-0.3-1.4c-0.1-0.4-0.1-0.6,0-0.7c0.2,0,0.3,0.1,0.4,0.4c0.3,0.7,0.4,1.5,0.4,2.3v0.4
				c0,0.8-0.4,1.7-1,2.3c-0.7,0.8-1.9,1.2-3.4,1.2c-1,0-1.9-0.1-2.8-0.5c-0.8-0.4-1.4-0.6-1.9-0.8c-0.6-0.3-1.2-0.7-1.7-1.1
				c-0.7-0.6-1.2-0.9-1.4-1.1c-0.6-0.4-1.5-1.3-2.9-2.5c-1,2-1.4,3.1-2.7,3c-0.1,0-0.1,0-0.2-0.1c0-0.1,0-0.1,0-0.1
				c0.1,0,0.2-0.3,0.3-0.3c0.7,0,1.2-0.9,2-3c-1.1-0.8-2.7-1.9-3.1-1.9C259.4,194.8,260.3,194.4,260.2,194.4z M274.2,178.8
				c0-1.7-0.6-2.6-1.6-2.6s-1.8,0.6-2.4,1.8c-0.7,1.1-1.2,2.3-1.6,3.6c-0.3,1.1-0.6,1.9-0.7,2.4c-0.4,1.3-0.7,2.4-0.8,3.5
				c-0.6,2.1-1.1,3.5-1.4,4.3c2.2-1.2,4.1-2.8,5.6-4.8s2.5-4.4,2.9-6.9C274.1,179.6,274.2,179.2,274.2,178.8z"/>
			<path d="M274.5,196c-0.4,0-0.7-0.1-1-0.3c-0.4-0.2-0.7-0.6-0.9-0.9c-0.3-0.4-0.4-0.8-0.4-1.3s0.1-0.9,0.3-1.3c0.4-1,1-2,1.8-2.8
				s1.7-1.6,2.6-2.3s1.6-1,2.1-1.2c0.5-0.1,1-0.2,1.5-0.3c0.5,0,0.9,0.1,1.3,0.4c0.3,0.2,0.5,0.6,0.6,1c0,0,0,0.1,0,0.2
				c0,0,0,0-0.1,0c-0.2-0.4-0.7-0.7-1.4-0.7c-0.7,0-1.5,0.3-2.4,0.8c-0.9,0.6-1.8,1.3-2.5,2.1s-1.3,1.6-1.7,2.5
				c-0.5,1-0.7,1.6-0.7,2.1c0,0.8,0.2,1.3,0.6,1.3s1-0.4,1.8-1.2c1-1,1.9-2,2.7-3c1.7-2.3,2.7-3.4,2.8-3.4c0.3,0,0.6,0.1,0.8,0.3
				c0.3,0.1,0.4,0.4,0.3,0.6c-0.9,1.5-1.5,3.2-1.7,4.9c0,0.2,0,0.5,0,0.8s0,0.6,0.2,0.8c0.3,0.4,0.7,0.4,1.2,0c0.5-0.3,1.2-1,2-1.9
				c0.8-0.8,1.5-1.8,2.1-2.8c0.1-0.1,0.1-0.1,0.3-0.1c0.1,0,0.1,0.1,0.1,0.1c0,0.4-0.4,1.1-1.4,2.2c-0.9,1.2-1.6,2-2,2.4
				c-0.9,0.8-1.7,1.2-2.4,1.2c-0.7,0-1.2-0.4-1.4-1.3c0-0.3-0.1-0.6-0.1-0.9c0-1.1,0.2-2.2,0.6-3.2c-0.1,0-0.4,0.5-1,1.4
				c-0.7,0.9-1.4,1.7-2.1,2.5C275.8,195.6,275.1,196,274.5,196z"/>
			<path d="M297.5,193.2c-0.6,0.8-1.3,1.5-2,2.2c-0.7,0.6-1.5,1-2.4,1c-0.3,0-0.5-0.1-0.7-0.3c-0.3-0.2-0.5-0.5-0.6-0.8
				c-0.1-0.4-0.1-0.7-0.1-1.1c0-1.2,0.2-2.4,0.6-3.5c-0.3,0.5-0.6,1-0.8,1.4c-0.5,0.9-1,1.8-1.7,2.6s-1.4,1.3-2,1.3
				c-0.4,0-0.8-0.1-1.1-0.3c-0.7-0.4-1.1-1.2-1.1-2.3c0-1.4,0.4-2.7,1.1-4.1s1.3-2.2,1.4-2.3c0.3-0.1,0.6-0.1,0.8-0.1s0.6,0,0.8,0.2
				c0.3,0.1,0.2,0.3-0.1,0.7c-1.3,1.4-2.2,3-2.8,4.8c-0.2,0.6-0.3,1.1-0.3,1.7c0,0.5,0.1,0.8,0.3,0.9c0.1,0.1,0.4,0.2,0.6,0.2
				c0.4,0,1.1-0.4,1.8-1.1c0.8-0.8,1.9-2.4,3.2-4.8c0.2-0.4,0.5-1,1-2s0.7-1.6,0.8-1.8c0.4,0,0.7,0.1,1.1,0.3
				c0.4,0.1,0.6,0.4,0.4,0.7c-0.9,1.8-1.5,3.2-1.9,4c-0.4,1-0.7,2-0.7,3c0,0.2,0,0.5,0,0.8s0,0.6,0.2,0.8c0.3,0.4,0.7,0.4,1.2,0
				c0.5-0.3,1.2-1,2-1.9c0.8-0.8,1.5-1.8,2.1-2.8c0.1-0.1,0.1-0.1,0.3-0.1c0.1,0,0.1,0.1,0.1,0.1s0,0.1,0,0.2
				C298.6,191.7,298.1,192.5,297.5,193.2z"/>
			<path d="M299.7,191.2c-0.1,0.5-0.3,1-0.4,1.5c0,0.3,0,0.6,0,1.1c0,0.4,0.1,0.8,0.3,1.2c0.3,0.6,0.8,0.7,1.6,0.1
				c0.6-0.4,1.3-1,2.1-2c0.7-0.8,1.4-1.7,2-2.7l0.1-0.1c0.1,0,0.2,0.1,0.1,0.4c-0.4,0.8-1,1.6-1.6,2.4c-0.6,0.8-1.3,1.6-2.1,2.3
				c-0.6,0.6-1.3,0.8-1.9,0.8c-1.4,0-2.1-0.8-2.1-2.5v-0.2c0.1-1.6,0.7-4,2-7.2s2.4-5.6,3.4-7.3l0.8-1.4c0.3-0.4,0.6-0.7,0.9-1.1
				c0.7-0.8,1.5-1.3,2.3-1.3s1.4,0.3,1.6,0.9c0.1,0.3,0.1,0.6,0.1,0.9c0,0.6-0.2,1.1-0.4,1.7C306.9,182.9,303.9,187.1,299.7,191.2z
				 M308.1,178.2c0.2-0.4,0.3-0.8,0.3-1.2c0-0.5-0.1-0.7-0.5-0.7c-0.3,0-0.6,0.2-1,0.6c-1.5,1.4-3,3.7-4.4,6.7c-1,2-1.8,4.2-2.5,6.3
				c1.3-1.1,2.7-2.8,4.3-5.2C306,182.3,307.3,180.1,308.1,178.2L308.1,178.2z"/>
			<path d="M306.3,196c-0.4,0-0.7-0.1-1-0.3c-0.4-0.2-0.7-0.6-0.9-0.9c-0.3-0.4-0.4-0.8-0.4-1.3s0.1-0.9,0.3-1.3c0.4-1,1-2,1.8-2.8
				s1.7-1.6,2.6-2.3s1.6-1,2.1-1.2c0.5-0.1,1-0.2,1.5-0.3c0.5,0,0.9,0.1,1.3,0.4c0.3,0.2,0.5,0.6,0.6,1c0,0,0,0.1,0,0.2
				c0,0,0,0-0.1,0c-0.2-0.4-0.7-0.7-1.4-0.7c-0.7,0-1.5,0.3-2.4,0.8c-0.9,0.6-1.8,1.3-2.5,2.1s-1.3,1.6-1.7,2.5
				c-0.5,1-0.7,1.6-0.7,2.1c0,0.8,0.2,1.3,0.6,1.3s1-0.4,1.8-1.2c1-1,1.9-2,2.7-3c1.7-2.3,2.7-3.4,2.8-3.4c0.3,0,0.6,0.1,0.8,0.3
				c0.3,0.1,0.4,0.4,0.3,0.6c-0.9,1.5-1.5,3.2-1.7,4.9c0,0.2,0,0.5,0,0.8s0,0.6,0.2,0.8c0.3,0.4,0.7,0.4,1.2,0c0.5-0.3,1.2-1,2-1.9
				c0.8-0.8,1.5-1.8,2.1-2.8c0.1-0.1,0.1-0.1,0.3-0.1c0.1,0,0.1,0.1,0.1,0.1c0,0.4-0.4,1.1-1.4,2.2c-0.9,1.2-1.6,2-2,2.3
				c-0.8,0.8-1.7,1.2-2.4,1.2c-0.7,0-1.2-0.4-1.4-1.3c0-0.3-0.1-0.6-0.1-0.9c0-1.1,0.2-2.2,0.6-3.2c-0.1,0-0.4,0.5-1,1.4
				c-0.7,0.9-1.4,1.7-2.1,2.5C307.7,195.6,307,196,306.3,196z"/>
			<path d="M324.9,196.2c-0.5-0.1-1-0.5-1.1-0.9s-0.1-0.7-0.1-1.1c0-1.2,0.2-2.4,0.6-3.5c-0.3,0.5-0.6,1-0.8,1.4
				c-0.5,0.9-1,1.8-1.7,2.6s-1.4,1.3-2,1.3c-0.4,0-0.8-0.1-1.1-0.3c-0.7-0.4-1.1-1.2-1.1-2.3c0-1.4,0.4-2.7,1.1-4.1
				c0.8-1.4,1.3-2.2,1.4-2.3c0.3-0.1,0.6-0.1,0.8-0.1c0.3,0,0.6,0,0.8,0.2c0.3,0.1,0.2,0.3-0.1,0.7c-1.3,1.4-2.2,3-2.7,4.8
				c-0.2,0.6-0.3,1.1-0.3,1.7c0,0.5,0.1,0.8,0.3,0.9c0.1,0.1,0.4,0.2,0.6,0.2c0.4,0,1.1-0.4,1.8-1.1s1.9-2.4,3.2-4.8
				c0.2-0.4,0.5-1,1-2s0.7-1.6,0.8-1.8c0.4,0,0.7,0.1,1.1,0.3c0.4,0.1,0.6,0.4,0.4,0.7c-0.9,1.8-1.5,3.2-1.9,4c-0.4,1-0.7,2-0.7,3
				c0,0.2,0,0.4,0,0.7s0.2,1.1,0.7,1.3L324.9,196.2z"/>
			<path d="M324.5,196.1c1.3,0.6,2.9,0.4,4.3,0.3c1.4-0.1,2.3-0.3,3.9-0.7c0.7-0.2,0.6-0.8-0.1-0.6c-1.4,0.4-1.8,0.6-3.2,0.7
				c-1.3,0-2.7,0.2-3.8-0.3C325.2,195.3,324,195.8,324.5,196.1L324.5,196.1z"/>
			<path d="M231.9,188c-0.8,2.4-3.5,6.3-5.6,7.7c0,0.1,0,0.7,0,0.7c0.2-0.1,0.4-0.2,0.6-0.4c2.1-1.5,4.8-5.4,5.7-7.9
				C232.7,187.8,232.1,187.6,231.9,188z"/>
			<path d="M230.1,196.4c2.2-3.2,5.6,0.7,8.3-0.9c1.1-0.7,1.8-2.1,2.5-3.1l3.1-4.6c0.2-0.3-0.3-0.7-0.6-0.3l-3,4.4
				c-1.1,1.6-1.9,3.6-4.2,3.3c-1.4-0.2-2.7-1-4.2-0.7c-1,0.1-2,0.7-2.5,1.6C229.3,196.4,229.8,196.7,230.1,196.4L230.1,196.4z"/>
			<path d="M246.3,198.4c2-1.3,4-2.6,6.2-3.2c1.7-0.5,3.4-0.8,5.2-0.9c0.4,0,0.7-0.7,0.3-0.6c-1.8,0.1-3.9,0.5-5.6,1
				c-2.3,0.7-4.4,2-6.3,3.3C245.7,198.1,246,198.6,246.3,198.4L246.3,198.4z"/>
			<path d="M264.5,192.3c-2.2,0.7-4.4,1.2-6.7,1.4c-0.4,0-0.4,0.7,0,0.6c2.4-0.2,4.6-0.7,6.9-1.5C265,192.8,264.9,192.2,264.5,192.3
				L264.5,192.3z"/>
			<path d="M260.5,194.6c-0.4-0.3-1-0.7-1.6-0.4c-0.8,0.4-0.8,1.7-0.8,2.5c0,1.8,0.7,3.6,2.7,3.5c0.3,0,0.1-0.5,0-0.5
				c-1.4-0.1-2-0.9-2.1-2c-0.1-0.6-0.1-1.6,0-1.8v-0.3c0-0.3,0.2-0.5,0.4-0.6c0.1-0.1,0.5-0.3,0.9-0.1
				C260.3,195,260.7,194.9,260.5,194.6L260.5,194.6z"/>
		</g>
		<g id="bloom">
			<g>
				<path d="M189.9,129.6c0.2-2.8,1.5-5.4,3.9-8.1c2.7-2.9,5.7-5.5,9-7.6c3.7-2.4,9.4-4.4,17.3-6.1c3.7-0.8,7.5-1.2,11.3-1.3
					c2.7-0.1,5.3,0.3,7.9,1c2.3,0.6,4.2,1.9,5.7,3.7c1.5,1.8,2.3,4.1,2.3,6.5c-0.1,2.6-1,5.1-2.6,7.1c-1.7,2.2-3.9,3.9-6.5,5.1
					c-4.6,2.2-9.6,3.4-14.6,3.8c2.3,1.7,4.2,3.2,5.7,4.4c1.8,1.5,3.4,3.2,4.8,5c1.7,2.1,2.8,3.9,3.3,5.3c0.5,1.3,0.7,2.7,0.7,4
					c-0.1,3.9-1.3,7.8-3.6,11c-1.7,2.5-4,4.5-6.7,5.8c-2.8,1.4-5.9,2.2-9.1,2.1c-6.8,0-10.6-3-11.2-8.8c-0.1-0.2-0.2-0.4-0.2-0.6
					c-2,3.9-3.7,5.9-5.1,5.9c-0.6-0.1-1.3-0.2-1.8-0.4c-0.8-0.2-1.3-0.5-1.3-0.7s-0.1-0.8-0.1-1.7s0.5-2.9,1.5-6.1
					c1-3.2,2.2-6.3,3.5-9.6c2.5-5.8,5-11.5,7.5-17c0.4-0.8,0.6-1.7,0.7-2.7c0-0.5,0-1-0.1-1.4c0.2-1.8,1.5-4.2,3.9-7.2
					s4.5-4.4,6.5-4.4c1,0.1,1.8,0.4,2.6,0.9c1,0.5,1.7,1.4,2,2.4c0.1,0.3,0.1,0.6,0,0.9c0,0.1-0.2,0.1-0.5-0.1
					c-0.2-0.1-0.3-0.2-0.5-0.2c-1.7,0-3.8,1.5-6.1,4.6c-2.7,3.5-4.9,7.4-6.8,11.4c-4.5,9.1-7.8,16.6-9.8,22.4c-0.4,1-0.6,2-0.7,3
					c0,1,0.4,1.5,1.1,1.5s1.7-0.9,2.8-2.7c1.2-1.8,2-2.7,2.5-2.7s0.9,0.2,1.2,0.5s0.5,0.7,0.6,1c0.1,0.5,0.2,1,0.2,1.5
					c0,0.4,0.1,0.8,0.2,1.3c0.9,4.6,3.5,6.9,8.1,6.9h0.3c3.4,0.1,6.8-1,9.5-3.1c2.9-2.4,4.3-5.2,4.3-8.7s-1.4-7.2-4-11.1
					c-1.2-1.5-2.4-3-3.8-4.4c-3.5-3.7-5.3-6.1-5.5-7.1c-0.1-1,0.3-2,1.1-2.6c0.7-0.6,1.4-1,2.3-1c2.6,0,6.2-1.1,10.7-3.4
					c6.6-3.3,10.3-7,10.7-11v-0.6c0-1.3-0.5-2.4-1.3-3.3c-1.5-1.9-4.5-2.8-9.1-2.8c-6.3,0-13.8,1.4-22.2,4.2
					c-4.9,1.6-9.5,4-13.5,7.2c-4.2,3.4-6.3,7.1-6.3,11c0,0.9,0.2,1.7,0.7,2.5c0.4,0.7,0.8,1.3,1.5,1.8c0.7,0.4,1.5,0.8,2.2,1.2
					c0.9,0.4,1.5,0.8,2,1c0.4,0.2,0.5,0.5,0.4,0.8c-0.1,0.4-0.5,0.4-1.2,0.3c-1.8-0.1-3.5-1-5.3-2.7c-1.7-1.5-3-4.3-2.9-6.1
					L189.9,129.6z"/>
				<path d="M219.3,171.7c-0.2,0-0.4,0-0.6,0c-6.8,0-10.8-3-11.5-8.7c-1.9,3.6-3.5,5.2-5,5.2h-0.3c-0.6-0.1-1.2-0.2-1.7-0.4
					c-0.5-0.1-1.5-0.5-1.5-1c0-0.1,0-0.1,0-0.3c0-0.3-0.1-0.8-0.1-1.4c0-0.9,0.5-2.9,1.5-6.2c1-3.2,2.2-6.3,3.5-9.6
					c2.8-6.5,5.3-12.1,7.5-17c0.4-0.7,0.6-1.5,0.7-2.6c0-0.4,0-0.9-0.1-1.3v-0.1v-0.1c0.2-1.9,1.5-4.3,4-7.4
					c2.4-3.1,4.7-4.5,6.8-4.5c1.1,0.1,1.9,0.4,2.8,1c1,0.5,1.8,1.5,2.2,2.6c0.1,0.3,0.1,0.7,0,1.1v0.2l-0.2,0.2
					c-0.3,0.1-0.6,0-0.9-0.2c0,0-0.1,0-0.1-0.1c-0.1-0.1-0.1-0.1-0.2-0.1c-1.6,0-3.7,1.6-5.8,4.4c-2.4,3.1-4.6,6.8-6.8,11.3
					c-4.5,9.2-7.8,16.7-9.8,22.4c-0.4,0.9-0.6,1.8-0.7,2.9c0,1.1,0.5,1.1,0.7,1.1c0.5,0,1.3-0.7,2.5-2.5c1.6-2.4,2.3-2.9,2.8-2.9
					c0.6,0,1.1,0.2,1.5,0.6c0.4,0.4,0.6,0.9,0.7,1.1c0.1,0.6,0.2,1.1,0.2,1.6c0,0.3,0.1,0.6,0.1,1l0.1,0.3c0.9,4.5,3.3,6.6,7.7,6.6
					h0.3c3.4,0.1,6.6-1,9.3-3c2.8-2.3,4.2-5,4.2-8.4c0-3.3-1.3-7-3.9-10.9c-1.2-1.4-2.4-3-3.8-4.3c-2.4-2.5-5.3-5.9-5.6-7.3
					c-0.1-1.2,0.4-2.3,1.2-3c0.6-0.5,1.4-1.1,2.5-1.1c2.6,0,6.2-1.2,10.5-3.4c6.6-3.3,10.1-6.9,10.5-10.7v-0.6
					c0-1.1-0.4-2.2-1.2-3.1c-1.4-1.8-4.3-2.7-8.8-2.7c-6.3,0-13.8,1.4-22.1,4.2c-5,1.6-9.5,4-13.4,7.1c-4.1,3.3-6.2,6.9-6.2,10.7
					c0,0.9,0.2,1.6,0.6,2.3c0.4,0.7,0.8,1.3,1.4,1.7c0.3,0.2,0.7,0.4,1.1,0.6c0.4,0.2,0.8,0.4,1.1,0.6c0.4,0.2,0.8,0.4,1.2,0.6
					c0.3,0.2,0.5,0.3,0.8,0.4c0.6,0.3,0.8,0.8,0.6,1.3c-0.2,0.8-1,0.6-1.6,0.6c-1.8-0.1-3.6-1-5.5-2.8c-1.7-1.5-3.1-4.5-3-6.4
					l-0.1-1.7l0,0c0.2-2.8,1.5-5.5,4-8.3c2.9-3.1,5.9-5.7,9.1-7.7c3.7-2.4,9.4-4.4,17.4-6.2c3.5-0.8,7.4-1.2,11.4-1.3
					c2.5-0.1,5.1,0.2,8,1c2.3,0.6,4.3,1.9,5.9,3.8c1.5,1.8,2.4,4.2,2.4,6.7c-0.1,2.7-1.1,5.3-2.7,7.3c-1.7,2.2-3.9,4-6.6,5.2
					c-4.1,2-8.8,3.2-13.7,3.7c2,1.5,3.7,2.8,4.9,3.8c1.7,1.5,3.4,3.2,4.9,5.1c1.7,2.1,2.8,3.9,3.4,5.4c0.5,1.2,0.7,2.7,0.7,4.1
					c-0.1,4.1-1.4,8.1-3.7,11.2c-1.7,2.6-4.1,4.6-6.8,5.9C225.1,171,222.2,171.7,219.3,171.7z M207.7,160.3v1.6
					c0,0.1,0.1,0.3,0.2,0.4v0.1c0.6,5.6,4.2,8.5,10.8,8.5c3,0.1,6-0.6,8.9-2.1c2.6-1.3,4.9-3.2,6.6-5.7c2.2-3,3.4-6.9,3.5-10.8
					c0-1.4-0.2-2.7-0.7-3.9c-0.5-1.4-1.6-3.2-3.2-5.2c-1.5-1.9-3.1-3.5-4.7-4.9c-1.4-1.1-3.4-2.7-5.7-4.4l-0.8-0.6l1-0.1
					c5.3-0.4,10.1-1.7,14.5-3.8c2.6-1.2,4.7-2.9,6.4-5c1.5-1.9,2.4-4.4,2.5-6.9c0-2.3-0.8-4.5-2.2-6.2c-1.5-1.8-3.4-3-5.5-3.6
					c-2.8-0.8-5.4-1.1-7.8-1c-4,0.1-7.8,0.5-11.2,1.3c-7.9,1.7-13.5,3.7-17.2,6c-3.1,2-6.1,4.5-8.9,7.5c-2.4,2.7-3.6,5.2-3.8,7.8
					l0.1,1.7c-0.1,1.7,1.2,4.5,2.8,5.8c1.8,1.7,3.4,2.5,5.1,2.6c0.6,0.1,0.8,0.1,0.8,0s0.1-0.3-0.2-0.4c-0.2-0.1-0.5-0.2-0.8-0.4
					s-0.7-0.4-1.2-0.6c-0.4-0.2-0.7-0.4-1.1-0.6c-0.4-0.2-0.8-0.4-1.1-0.6c-0.8-0.6-1.3-1.3-1.6-1.9c-0.5-0.8-0.7-1.7-0.7-2.7
					c0-4,2.2-7.8,6.4-11.3c3.9-3.2,8.5-5.6,13.6-7.3c8.4-2.8,15.9-4.2,22.3-4.2c4.8,0,7.8,1,9.4,2.9c0.9,1,1.4,2.2,1.4,3.5v0.6
					c-0.4,4.1-4.1,7.9-10.9,11.3c-4.5,2.3-8.1,3.4-10.9,3.4c-0.7,0-1.3,0.3-2.1,0.9c-0.7,0.5-1.1,1.4-1,2.3c0.1,0.4,0.8,2,5.4,6.9
					c1.4,1.4,2.6,2.9,3.8,4.4c2.8,4.1,4.1,7.8,4.1,11.3c0,3.6-1.5,6.5-4.4,9c-2.8,2.2-6.2,3.3-9.8,3.2h-0.3c-4.8,0-7.5-2.4-8.5-7.2
					l-0.1-0.2c-0.1-0.4-0.2-0.8-0.2-1.1c0-0.5-0.1-0.9-0.2-1.4c0-0.1-0.2-0.5-0.5-0.8s-0.6-0.4-0.9-0.4c-0.2,0-0.7,0.2-2.2,2.5
					c-0.8,1.3-2,2.9-3.1,2.9c-0.4,0-1.5-0.2-1.5-1.9c0.1-1.2,0.4-2.2,0.7-3.1c2-5.7,5.3-13.2,9.8-22.4c2.2-4.5,4.4-8.3,6.8-11.5
					c2.3-3.1,4.5-4.7,6.4-4.7c0.2,0,0.4,0.1,0.5,0.2l0.1,0.1l0,0c0-0.1,0-0.2-0.1-0.4c-0.3-1-0.9-1.8-1.8-2.2
					c-0.8-0.5-1.6-0.8-2.5-0.9c-1.8,0-3.9,1.4-6.2,4.3s-3.6,5.2-3.8,6.9c0.1,0.4,0.1,0.9,0.1,1.4c-0.1,1.2-0.4,2.1-0.7,2.9
					c-2.2,4.9-4.7,10.5-7.5,17c-1.3,3.3-2.5,6.4-3.5,9.6c-1,3.2-1.5,5.2-1.5,6c0,0.6,0,1,0.1,1.4c0,0.1,0,0.2,0,0.3
					c0.1,0.1,0.4,0.3,1,0.4c0.5,0.2,1.1,0.3,1.6,0.4h0.2c0.8,0,2.3-1,4.7-5.7L207.7,160.3z"/>
			</g>
			<g>
				<path d="M248.2,151.8c-0.5,1.5-0.8,3-1.1,4.4c-0.1,0.8-0.1,1.8-0.1,3s0.2,2.4,0.8,3.5c0.9,1.8,2.4,1.9,4.6,0.4
					c1.6-1.1,3.7-3,6.1-5.7c2.1-2.4,4.1-4.9,5.7-7.5c0.1-0.2,0.3-0.3,0.5-0.3c0.5,0,0.6,0.4,0.4,1.3c-1.3,2.4-2.7,4.6-4.4,6.7
					c-1.8,2.3-3.8,4.5-5.9,6.5c-1.8,1.6-3.5,2.4-5.3,2.4c-4.1,0-6.1-2.4-6.1-7.2v-0.6c0.2-4.5,2.1-11.4,5.7-20.6
					c3.6-9.2,6.8-16.1,9.7-20.8l2.5-3.8c0.8-1.1,1.7-2.1,2.6-3.1c2.1-2.5,4.4-3.7,6.6-3.7c2.3,0,3.8,0.8,4.6,2.5
					c0.3,0.8,0.5,1.7,0.4,2.5c-0.1,1.6-0.5,3.2-1.2,4.7C268.8,127.9,260.1,139.8,248.2,151.8z M272.1,114.6c0.5-1.1,0.9-2.2,1-3.3
					c0-1.4-0.5-2.1-1.4-2.1c-0.8,0-1.7,0.5-2.8,1.6c-4.3,4-8.4,10.4-12.4,19.1c-2.8,5.8-5.1,11.9-7.1,18c3.7-3.1,7.8-8,12.4-14.9
					C266.3,126.1,269.8,119.9,272.1,114.6L272.1,114.6z"/>
				<path d="M249.5,166.9c-4.3,0-6.5-2.5-6.5-7.6v-0.6c0.2-4.6,2.1-11.5,5.7-20.7c3.7-9.4,6.8-16.2,9.7-20.9l2.5-3.8
					c0.8-1.1,1.7-2.2,2.6-3.1c2.1-2.5,4.5-3.8,6.9-3.8c2.5,0,4.1,0.9,4.9,2.7c0.3,0.7,0.6,1.7,0.4,2.7c-0.1,1.7-0.5,3.3-1.2,4.8
					c-5.6,11.7-14.4,23.6-26.1,35.4c-0.4,1.3-0.7,2.6-1,3.9l-0.1,0.4c-0.1,0.7-0.1,1.8-0.1,2.9c0,1.3,0.2,2.4,0.8,3.3
					c0.3,0.7,0.7,1.1,1.2,1.2c0.7,0.2,1.6-0.1,2.8-0.9c1.2-0.8,3.2-2.5,6-5.6c2.5-2.8,4.3-5.2,5.7-7.4c0.1-0.3,0.5-0.5,0.8-0.5
					c0.4,0,0.6,0.2,0.7,0.3c0.2,0.3,0.3,0.7,0.1,1.5v0.1c-1.4,2.6-2.8,4.8-4.4,6.8c-1.8,2.3-3.8,4.5-5.9,6.5
					C253.1,166.1,251.4,166.9,249.5,166.9z M270.5,107.1c-2.2,0-4.4,1.2-6.3,3.6c-0.9,1-1.8,2-2.6,3.1l-2.5,3.8
					c-2.9,4.6-6,11.4-9.7,20.7c-3.6,9.1-5.5,16-5.7,20.5v0.6c0,4.6,1.9,6.8,5.7,6.8c1.7,0,3.3-0.7,5.1-2.3c2.1-2,4.1-4.2,5.9-6.5
					c1.6-1.9,2.9-4,4.3-6.6c0.1-0.7,0-0.8,0-0.8c-0.1,0-0.2,0-0.3,0.1c-1.4,2.3-3.2,4.7-5.8,7.6c-2.3,2.6-4.4,4.6-6.2,5.8
					c-1.4,0.9-2.5,1.3-3.4,1c-0.7-0.2-1.3-0.7-1.7-1.6c-0.6-1-0.8-2.2-0.8-3.7c0-1.2,0-2.2,0.1-3l0.1-0.4c0.3-1.3,0.6-2.7,1-4
					l0.1-0.1c11.7-11.8,20.5-23.7,26-35.3c0.7-1.4,1.1-3,1.2-4.6c0.1-0.8-0.1-1.7-0.4-2.3C274,107.8,272.7,107.1,270.5,107.1z
					 M248.6,149l0.4-1.2c2.3-6.9,4.6-12.8,7.1-18c4.1-8.9,8.2-15.2,12.5-19.2c1.2-1.2,2.1-1.7,3.1-1.7c0.7,0,1.8,0.3,1.8,2.5
					c-0.1,1-0.4,2.1-1,3.5c-2.3,5.2-5.7,11.4-10.3,18.5c-4.6,6.9-8.7,11.8-12.5,15L248.6,149z M271.7,109.6c-0.7,0-1.5,0.5-2.5,1.5
					c-4.2,3.9-8.3,10.1-12.3,19c-2.4,4.9-4.5,10.3-6.7,16.7c3.4-3.1,7.2-7.7,11.3-13.9c4.6-7,8-13.2,10.3-18.3l0,0
					c0.6-1.3,0.9-2.3,1-3.2C272.7,109.6,272,109.6,271.7,109.6z"/>
			</g>
			<g>
				<path d="M279.9,153.8c0.8-1.7,1.4-3.6,1.7-5.5c0.2-1.1,0.3-2.2,0.3-2.2c0.2-1.5,0.2-2.3,0.1-2.9c-0.1-0.2,0.5-0.7,1.3-1.4
					c0.3,0.6,1.2,3.5,1,4.9c-0.4,3.7-1.6,7.2-3.5,10.3c-1.1,1.7-3.1,4.8-4.6,6.2c-2.1,2.1-4.7,3.6-7.3,3.6c-1.3,0.1-2.3-0.8-3.3-1.7
					c-1.9-1.4-2.8-3.8-2.8-7.3c0.1-4.1,1.2-8.1,3.2-11.7c1.2-2.3,2.6-4.3,4.3-6.1c2.7-2.8,5.1-4.2,7.5-4.2c0.9,0.1,2,0.8,2.7,1.3
					c0.1,0.1-0.2,2.1-1.2,1.6c-0.7-0.3-1.9-0.1-2.8,0.7c-1.7,1.8-3.4,3.7-4.8,5.6c-3,4.2-4.7,8.4-5.3,12.6c-0.1,0.8-0.2,1.6-0.2,2.4
					c0.1,1.1,0.3,2.1,0.7,3c0.4,1.1,1.5,1.8,2.7,1.7c1.3,0,2.7-0.7,4.3-2.1c1.7-1.6,3.1-3.4,4.2-5.5L279.9,153.8z"/>
				<path d="M268.9,166.8c-1.2,0-2.5-0.5-3.5-1.4c-2-1.4-2.9-3.9-2.9-7.6c0.1-4.1,1.2-8.2,3.2-11.9c1.2-2.3,2.7-4.4,4.4-6.2
					c2.8-2.9,5.3-4.3,7.8-4.3c0.8,0.1,1.8,0.5,2.9,1.3c0.4,0.4,0,1.5-0.3,1.9c-0.3,0.5-0.8,0.6-1.3,0.3c-0.5-0.2-1.6-0.1-2.4,0.6
					c-1.3,1.4-3.2,3.4-4.7,5.5c-2.9,4-4.6,8.2-5.2,12.4c-0.1,0.8-0.2,1.6-0.2,2.3c0.1,1.1,0.3,2.1,0.7,2.8c0.4,1,1.3,1.6,2.3,1.5
					c1.2,0,2.5-0.7,4.1-2c1.7-1.6,3.1-3.4,4.1-5.4l1.8-3.3c0.8-1.7,1.4-3.6,1.7-5.4c0.2-1.1,0.3-2.2,0.3-2.2
					c0.2-1.3,0.2-2.2,0.1-2.8c-0.1-0.4,0.3-0.7,1-1.4l0.8-0.7l0.2,0.4c0.3,0.7,1.2,3.6,1,5.1c-0.4,3.7-1.6,7.3-3.6,10.4
					c-1.1,1.7-3.1,4.9-4.7,6.3c-2.2,2.2-4.6,3.3-7.3,3.3C269.1,166.8,269,166.8,268.9,166.8z M277.8,136.2c-2.2,0-4.5,1.3-7.2,4.1
					c-1.7,1.8-3,3.7-4.2,6c-2,3.5-3.1,7.5-3.2,11.5c0,3.4,0.9,5.7,2.6,7c1,0.9,2.2,1.3,3.3,1.2c2.5,0,4.7-1,6.8-3.1
					c1.5-1.4,3.5-4.4,4.5-6.1c1.9-3.1,3.1-6.5,3.5-10.2c0.2-1.1-0.4-3.2-0.8-4.2l0,0c-0.3,0.3-0.6,0.5-0.7,0.7
					c0.1,0.7,0.1,1.6-0.1,3c0,0-0.1,1.1-0.3,2.2c-0.3,1.9-0.9,3.8-1.7,5.6l0,0l-1.8,3.3c-1.1,2.1-2.5,3.9-4.3,5.6
					c-1.7,1.5-3.2,2.2-4.6,2.2c-1.3,0.1-2.6-0.7-3.1-1.9c-0.4-0.8-0.6-1.8-0.7-3.1c0-0.9,0.1-1.7,0.2-2.5c0.6-4.4,2.4-8.7,5.4-12.8
					c1.6-2.1,3.5-4.2,4.8-5.6c1.1-1,2.4-1.1,3.2-0.8c0.2,0.1,0.2,0,0.2,0c0.2-0.2,0.4-0.8,0.4-1.1
					C279.2,136.6,278.4,136.2,277.8,136.2z"/>
			</g>
			<g>
				<path d="M302.1,157.2c1.6-2.8,2.9-5.7,3.7-8.8c0.2-0.7,0.5-2.1,0.3-2.8c0.2-0.7-0.1-1.7-0.2-2.4s0.6-0.8,1.3-0.7
					c0.2,0,0.1,0,0.2,0c0.1,0.1,0.5,1.3,0.8,3.8c0.2,2.5-1.1,6-3.4,10.7c-0.1,0.2-2.8,4.6-4.6,6.2c-2.1,2.1-4.4,3.2-7,3.2
					c-1.3,0.1-2.6-0.4-3.6-1.3c-1.9-1.4-2.8-3.8-2.8-7.3c0.1-4.1,1.2-8.1,3.2-11.7c1.2-2.3,2.7-4.3,4.4-6.1c2.6-2.8,5.1-4.2,7.5-4.2
					c1,0.1,2,0.6,2.7,1.4c0.1,0.5-1.2,1.8-1.4,1.7c-2.5-0.7-4.4,1.8-7.3,6.2c-2.9,4.2-4.7,8.4-5.3,12.6c-0.1,0.8-0.2,1.6-0.2,2.4
					c0.1,1.1,0.3,2.1,0.7,3c0.4,1.1,1.5,1.8,2.7,1.7c1.3,0,2.7-0.7,4.3-2.1C299.7,161.1,301.1,159.3,302.1,157.2L302.1,157.2z"/>
				<path d="M292.9,166.8c-1.2,0-2.5-0.5-3.5-1.4c-2-1.4-2.9-3.9-2.9-7.6c0.1-4.1,1.2-8.2,3.2-11.9c1.1-2.2,2.6-4.2,4.5-6.2
					c2.7-2.9,5.3-4.3,7.8-4.3c1.2,0.1,2.2,0.7,3,1.5l0.1,0.1v0.1c0.1,0.7-1,1.8-1.2,1.9c-0.1,0.1-0.4,0.3-0.7,0.2
					c-2.2-0.6-4.1,1.9-6.8,6.1c-2.9,4.2-4.7,8.4-5.2,12.4c-0.1,0.8-0.2,1.6-0.2,2.3c0.1,1.1,0.3,2.1,0.7,2.8c0.4,1,1.3,1.6,2.3,1.5
					c1.2,0,2.5-0.7,4.1-2c1.7-1.7,3-3.5,3.9-5.4l0,0c1.7-3,2.9-5.9,3.7-8.7c0.3-0.9,0.5-2.1,0.3-2.6v-0.1v-0.1
					c0.1-0.4,0-1.1-0.1-1.7c0-0.2-0.1-0.4-0.1-0.6c-0.1-0.4,0.1-0.7,0.2-0.8c0.3-0.3,0.8-0.4,1.5-0.3c0.1,0,0.2,0,0.2,0h0.2l0.1,0.2
					c0.1,0.1,0.5,1.3,0.8,3.9c0.3,2.7-1.2,6.3-3.4,10.9c-0.1,0.2-2.8,4.7-4.7,6.3c-2.2,2.2-4.6,3.3-7.2,3.3
					C293.1,166.8,293,166.8,292.9,166.8z M301.9,136.2c-2.2,0-4.7,1.4-7.2,4.1c-1.8,1.9-3.2,3.9-4.3,6c-2,3.5-3.1,7.5-3.2,11.5
					c0,3.4,0.9,5.7,2.6,7c1,0.9,2.2,1.3,3.3,1.2c2.5,0,4.7-1,6.8-3.1c1.8-1.6,4.4-5.8,4.5-6.1c1.9-3.9,3.6-7.8,3.4-10.5
					c-0.2-1.9-0.5-3-0.7-3.5c-0.7-0.1-0.8,0.1-0.9,0.1c0,0,0,0.1,0,0.2c0,0.2,0.1,0.3,0.1,0.5c0.1,0.6,0.3,1.3,0.1,1.9
					c0.2,1-0.2,2.6-0.3,2.9c-0.7,2.9-2,5.8-3.7,8.9c-0.9,2-2.3,3.8-4.1,5.6c-1.7,1.5-3.2,2.2-4.6,2.2c-1.3,0.1-2.6-0.7-3.1-1.9
					c-0.4-0.8-0.6-1.8-0.7-3.1c0-0.9,0.1-1.7,0.2-2.5c0.6-4.2,2.4-8.5,5.4-12.8c2.9-4.4,4.9-7.1,7.6-6.4c0.3-0.2,0.9-0.9,1-1.2
					C303.6,136.7,302.7,136.3,301.9,136.2z M303.3,138.5L303.3,138.5L303.3,138.5z"/>
			</g>
			<g>
				<path d="M320.8,141.6c0.3-2.3,1-3.6,2-4c0.7-0.2,1.4-0.2,2.1,0c0.8,0.2,1.2,0.7,1.2,1.4c-0.2,1-0.5,2-0.9,3
					c-0.6,1.5-2.3,6.8-5.1,15.8c2-2.9,4.4-6.2,7.3-10c5.9-7.5,10-11.3,12.2-11.3c0.5,0,1,0.2,1.4,0.5c0.5,0.4,0.7,1.1,0.7,2.2
					c-0.1,1.3-0.4,2.6-0.9,3.8c-0.6,1.4-1.3,3.1-2,5.1c-0.8,2-1.3,3.3-1.5,3.8c4.5-4.9,7.9-7.9,10.2-9c2.3-1.1,3.8-1.6,4.6-1.6
					c0.8,0,1.1,0.4,1.1,1c0,0.4-0.4,1.4-1.2,2.8c-1.1,2.1-2,4.4-2.7,6.6c-0.6,1.8-1.1,3.6-1.5,5.4c-0.1,0.5-0.1,1-0.2,1.6
					c-0.1,0.9-0.1,1.7-0.1,2.3c0,0.8,0.2,1.6,0.7,2.3c1.1,0.8,6.5,0.7,11.3-0.8l-2,2.6c-4.7,1.2-11.4,1.1-12.1,0.5
					c-0.9-0.6-1.3-1-1.6-2c-0.3-1-0.3-2-0.3-3c0-3.1,0.5-6.2,1.5-9.2c0.7-2.1,1.4-4.2,2.4-6.2c-2,1-3.7,2.3-5.2,3.9
					c-2.2,2.4-3.9,4.4-5.3,6.1l-1.6,2.1c-0.5,1.4-1.3,2.3-2.5,2.4c-1.2,0.2-1.8-0.3-1.8-1.4c0.1-1.3,1.1-4,3-8.3s2.8-6.6,2.8-7.2
					c0-0.5-0.2-0.7-0.7-0.7c-1,0-2.7,1.4-5.2,4c-1.7,1.9-4.1,5.5-7.4,10.7c-3.2,5.2-5.1,8-5.5,8.4c-2,1.2-3.1,1.8-3.6,1.8
					s-0.7-0.1-0.7-0.3c0-0.3,0.1-0.6,0.2-0.9c0.2-0.4,1.8-6.1,4.9-17L320.8,141.6z"/>
				<path d="M314.4,167.3c-0.7,0-1.1-0.2-1.1-0.7c0-0.4,0.1-0.7,0.2-1c0.2-0.4,1.4-4.6,3.4-11.7l3.5-12.4c0.3-2.4,1.1-3.8,2.2-4.3
					c0.8-0.2,1.6-0.2,2.3,0c0.9,0.2,1.5,0.9,1.5,1.8c-0.2,1.1-0.5,2.1-0.9,3.1c-0.5,1.3-1.9,5.5-4.4,13.5c1.8-2.5,3.7-5.2,5.9-8
					c6.1-7.7,10.1-11.4,12.5-11.4c0.6,0,1.1,0.2,1.6,0.6c0.6,0.5,0.9,1.2,0.9,2.5c-0.1,1.4-0.4,2.7-0.9,3.9c-0.5,1.3-1.3,3-2,5.1
					c-0.3,0.8-0.6,1.4-0.8,2c3.9-4.1,6.8-6.6,9-7.6c2.3-1.1,3.9-1.6,4.8-1.6s1.5,0.5,1.5,1.4c0,0.7-0.9,2.3-1.2,3
					c-1,1.9-1.9,4.1-2.7,6.5c-0.7,2-1.2,3.7-1.5,5.3c-0.1,0.5-0.2,1.1-0.2,1.5c-0.1,0.8-0.1,1.6-0.1,2.3c0,0.8,0.2,1.5,0.6,2
					c1,0.6,6.2,0.6,10.9-0.9l1.2-0.4l-2.8,3.7h-0.1c-4.6,1.2-11.5,1.2-12.4,0.4c-0.9-0.5-1.4-1.1-1.8-2.2c-0.3-1-0.3-2.1-0.3-3
					c0-3.2,0.5-6.4,1.5-9.4c0.6-1.7,1.2-3.5,1.9-5.2c-1.5,0.9-2.9,2-4.1,3.3c-1.9,2-3.5,4-5.3,6.1l-1.6,2c-0.6,1.6-1.5,2.5-2.8,2.6
					c-0.7,0.1-1.3,0-1.6-0.3c-0.4-0.3-0.6-0.8-0.6-1.5c0.1-1.3,1-3.9,3-8.5c1.8-4.2,2.8-6.5,2.8-7c0-0.3,0-0.3-0.3-0.3
					c-1.1,0-3.3,2.2-4.9,3.9c-1.7,1.9-4.2,5.6-7.4,10.6c-3.2,5.2-5.1,8-5.6,8.5C315.8,166.9,314.9,167.3,314.4,167.3z M314.1,166.5
					c0.1,0,0.2,0,0.3,0c0.5,0,2-0.9,3.4-1.7c0.2-0.3,2-2.8,5.4-8.3c3.2-5,5.7-8.8,7.4-10.8c2.8-2.9,4.4-4.1,5.5-4.1
					c0.7,0,1.1,0.4,1.1,1.1c0,0.5-0.3,1.7-2.8,7.4c-1.9,4.4-2.9,7-3,8.2c0,0.4,0.1,0.7,0.3,0.9c0.2,0.2,0.6,0.2,1.1,0.1
					c1-0.1,1.7-0.8,2.2-2.2l0.1-0.1l1.6-2.1c1.8-2.1,3.5-4.1,5.3-6.1c1.6-1.7,3.3-3,5.3-4l1-0.5l-0.5,1c-1,2-1.7,4.1-2.4,6.1
					c-1,3-1.5,6-1.5,9.1c0,1,0,2,0.3,2.9s0.7,1.3,1.5,1.8c0.6,0.4,6.8,0.7,11.7-0.5l1.2-1.6c-4.4,1.2-9.3,1.3-10.5,0.5l-0.1-0.1
					c-0.5-0.7-0.7-1.5-0.8-2.5c0-0.7,0.1-1.5,0.1-2.3c0-0.4,0.1-1,0.2-1.6c0.3-1.6,0.8-3.4,1.5-5.4c0.8-2.5,1.7-4.7,2.7-6.6
					c0.9-1.6,1.2-2.4,1.2-2.6c0-0.4-0.1-0.6-0.7-0.6c-0.5,0-1.7,0.3-4.4,1.6c-2.2,1.1-5.6,4.1-10.1,8.9l-1.4,1.5l1.1-2.7
					c0.3-0.7,0.7-1.7,1.2-3c0.7-2.1,1.5-3.8,2-5.1c0.5-1.1,0.8-2.4,0.9-3.7c0-1-0.2-1.6-0.6-1.9c-0.4-0.3-0.8-0.4-1.2-0.4
					c-1.4,0-4.7,1.9-11.9,11.2c-2.8,3.6-5.2,7-7.3,10l-1.4,2l0.7-2.4c3-9.5,4.5-14.4,5.1-15.8c0.4-1,0.7-2,0.9-2.9
					c0-0.5-0.3-0.8-0.9-1s-1.3-0.2-1.9,0c-0.9,0.3-1.5,1.6-1.7,3.7v0.1l-3.5,12.4c-2.4,8.5-3.2,11.4-3.4,11.8
					C314.2,166.1,314.1,166.3,314.1,166.5z"/>
			</g>
			<g>
				<path d="M236.7,159.1c1.9-0.1,6.5-2.9,11.5-7.4c0.8-0.8,1.3-4.7,0.5-3.8c-3.7,3.9-8.3,7.6-12.9,9.7
					C234.8,158.2,235.7,159.7,236.7,159.1L236.7,159.1z"/>
				<path d="M236.2,159.6c-0.2,0-0.4,0-0.6-0.1c-0.4-0.2-0.7-0.7-0.7-1.1c0-0.4,0.2-0.8,0.6-1.1c4.2-1.9,8.7-5.3,12.8-9.6
					c0.2-0.2,0.4-0.3,0.6-0.2c0.1,0,0.3,0.1,0.4,0.4c0.2,0.8-0.2,3.4-1,4.1c-4.7,4.3-9.5,7.3-11.7,7.5
					C236.6,159.6,236.4,159.6,236.2,159.6z M248.7,148.4c-4.1,4.3-8.6,7.6-12.8,9.5c-0.1,0.1-0.2,0.2-0.2,0.4s0.1,0.4,0.3,0.5
					c0.1,0.1,0.3,0.1,0.5,0l0.2-0.1c1.7-0.1,6.1-2.6,11.3-7.3C248.4,151,248.7,149.2,248.7,148.4z"/>
			</g>
			<g>
				<path d="M283.9,143.7c-0.7-2.5-2.5-8.1-5.9-7.2c-1.7,0.5-3.2,1.6-4.4,3c-0.8,1.1-0.5,2.1,0.5,3.1c2.8,3.1,7.8,4.6,11.9,4.8
					c4.4,0.3,6.3-1.7,9.6-4.2c0.9-0.7-0.4-2-1.3-1.3c-1.7,1.3-3.1,3.1-5.2,3.6c-2.4,0.5-5.2,0-7.4-0.7c-1.4-0.4-2.7-1.1-4-1.8
					c-1.4-0.8-3-1.5-1.5-3.2c3.6-3.5,5.5,2.1,6.1,4.4C282.5,145.3,284.2,144.8,283.9,143.7L283.9,143.7z"/>
				<path d="M286.8,147.8c-0.3,0-0.6,0-0.9,0c-3.9-0.2-9.1-1.6-12.2-4.9c-1.2-1.2-1.4-2.4-0.5-3.6c1.3-1.6,2.9-2.6,4.6-3.1
					c1.8-0.5,4.4,0.5,6.4,7.5l0,0c0.1,0.5,0,0.9-0.3,1.2c-0.1,0.1-0.1,0.1-0.2,0.1c1.6,0.3,3.5,0.5,5.3,0.2c1.4-0.3,2.5-1.3,3.6-2.3
					c0.5-0.4,0.9-0.8,1.4-1.2c0.7-0.5,1.5-0.3,1.9,0.3c0.4,0.5,0.3,1.2-0.2,1.6c-0.4,0.3-0.8,0.6-1.2,0.9
					C292.2,146.3,290.3,147.8,286.8,147.8z M278.7,136.8c-0.2,0-0.4,0-0.6,0.1c-1.5,0.4-3,1.4-4.2,2.9c-0.6,0.8-0.5,1.6,0.5,2.6
					c2.9,3.2,7.9,4.5,11.7,4.7c3.7,0.3,5.6-1.2,8.2-3.2c0.4-0.3,0.8-0.6,1.2-0.9c0.2-0.1,0.2-0.3,0-0.5s-0.6-0.4-0.9-0.2
					c-0.5,0.4-0.9,0.8-1.4,1.2c-1.2,1-2.4,2.1-4,2.5c-2.8,0.6-6-0.2-7.6-0.7c-1.4-0.4-2.8-1.1-4.1-1.8l-0.3-0.2
					c-0.9-0.5-1.8-1-2-1.9c-0.1-0.5,0.1-1.1,0.7-1.7c1.1-1.1,2.1-1.4,3.1-1.2c2,0.6,3.2,3.8,3.6,5.7c0,0.2,0.1,0.3,0.2,0.3
					c0.2,0.1,0.4,0,0.5-0.1s0.2-0.3,0.1-0.5C282.6,140.5,281.1,136.8,278.7,136.8z M278.4,139.1c-0.6,0-1.2,0.3-1.9,1
					c-0.4,0.4-0.5,0.8-0.5,1.1c0.1,0.5,0.9,0.9,1.6,1.4l0.3,0.2c1.3,0.7,2.6,1.4,3.9,1.8c0.1,0,0.1,0,0.2,0.1c0-0.1,0-0.2-0.1-0.2
					c-0.4-1.4-1.4-4.7-3.1-5.2C278.7,139.1,278.5,139.1,278.4,139.1z"/>
			</g>
			<g>
				<path d="M307.6,143c-1.2-3.3-2.3-7.2-5.7-6.5c-1.7,0.5-3.2,1.6-4.4,3c-0.8,1.1-0.5,2.1,0.5,3.1c2.8,3,7.9,4.6,11.9,4.8
					c5.1,0.3,9.3-2.7,13.1-5.6c0.9-0.7,0-2.3-0.9-1.5c-4.8,3.7-9.4,6.4-15.6,4.8c-1.4-0.4-2.8-0.9-4.1-1.6c-1.5-0.8-4.4-1.8-2.5-3.5
					c3.7-3.5,5.8,2,6.3,4.2c0.2,1.1,1.9,0.6,1.6-0.5L307.6,143z"/>
				<path d="M310.6,147.8c-0.2,0-0.5,0-0.7,0c-3.9-0.2-9.2-1.8-12.2-4.9c-1.2-1.2-1.4-2.4-0.5-3.6c1.3-1.6,2.9-2.6,4.6-3.1
					c3.5-0.7,4.8,2.9,5.9,6l0.5,1.4c0.1,0.5,0,0.9-0.3,1.2c-0.1,0.1-0.1,0.1-0.2,0.1c5.8,1.1,10.2-1.9,14.2-5
					c0.3-0.3,0.7-0.4,1.1-0.2c0.4,0.1,0.7,0.6,0.8,1c0.1,0.5-0.1,1-0.5,1.3C319.3,145.1,315.4,147.8,310.6,147.8z M302.6,136.8
					c-0.2,0-0.4,0-0.7,0.1c-1.5,0.4-3,1.4-4.2,2.9c-0.6,0.9-0.5,1.6,0.5,2.6c2.8,3,7.9,4.5,11.7,4.7c4.8,0.3,8.8-2.5,12.9-5.5
					c0.2-0.2,0.2-0.4,0.2-0.6c0-0.2-0.2-0.4-0.3-0.5c0,0-0.1-0.1-0.3,0.1c-4.4,3.4-9.3,6.6-15.9,4.9c-1.7-0.5-3-1-4.2-1.6
					c-0.2-0.1-0.4-0.2-0.7-0.3c-1.2-0.6-2.5-1.2-2.6-2.2c-0.1-0.5,0.2-1,0.7-1.5c1.1-1.1,2.2-1.4,3.3-1.1c2.5,0.8,3.5,5,3.6,5.5
					c0,0.2,0.1,0.3,0.2,0.3c0.2,0.1,0.4,0,0.5-0.1s0.2-0.3,0.1-0.5l-0.4-1.4C306,139.7,305,136.8,302.6,136.8z M302.2,139.2
					c-0.6,0-1.3,0.3-2.1,1c-0.4,0.3-0.5,0.6-0.5,0.9c0.1,0.6,1.3,1.2,2.2,1.7c0.2,0.1,0.5,0.2,0.7,0.3c1,0.5,2,1,3.3,1.4
					c0-0.1-0.1-0.2-0.1-0.3c-0.3-1.5-1.4-4.4-3.1-5C302.6,139.3,302.4,139.2,302.2,139.2z"/>
			</g>
		</g>
	</g>
</g>
</svg>
